<svg xmlns="http://www.w3.org/2000/svg" width="512" height="512" viewBox="0 0 512 512">
  <rect width="512" height="512" fill="#0c0e10" rx="128"/>
  <g transform="scale(21.333)">
    <path stroke="#c6c6c7" stroke-width="0.07" fill="none" d="M12 2C6.477 2 2 6.477 2 12q0 .668.085 1.312a10.01 10.01 0 0 0 7.298 8.342c.834.226 1.711.346 2.617.346 4.879 0 8.941-3.494 9.823-8.116q.175-.917.177-1.884a9.98 9.98 0 0 0-3.682-7.752A9.96 9.96 0 0 0 12 2Z"/>
    <path stroke="#c6c6c7" stroke-width="0.07" fill="none" d="M2.085 13.312a6 6 0 0 1 7.297 8.342M21.823 13.885a6.002 6.002 0 0 1-3.505-9.637M16 16a1 1 0 1 1-2 0 1 1 0 0 1 2 0ZM13 8.5a2.5 2.5 0 1 1-5 0 2.5 2.5 0 0 1 5 0Z"/>
  </g>
</svg>
